<svg width="2271" height="629" viewBox="0 0 2271 629" fill="none" xmlns="http://www.w3.org/2000/svg">
<path d="M314.355 0L628.711 314.355L314.355 628.711L0 314.355L314.355 0Z" fill="white"/>
<path d="M210.145 380.789L176.145 414.789L77.6448 316.289L315.145 78.7891L414.645 178.289L380.645 212.289L315.145 146.789L145.645 316.289L210.145 380.789Z" fill="black"/>
<path d="M417.145 249.289L451.145 215.289L549.645 313.789L312.145 551.289L212.645 451.789L246.645 417.789L312.145 483.289L481.645 313.789L417.145 249.289Z" fill="black"/>
<path d="M311.145 221.789L403.711 314.356L311.145 406.922L218.578 314.356L311.145 221.789Z" fill="black"/>
<path d="M980.1 525C997.367 525 1009.5 520.1 1016.5 510.3C1023.5 500.5 1027 489.533 1027 477.4V156.8C1027 145.133 1023.5 134.4 1016.5 124.6C1009.5 114.8 997.367 109.9 980.1 109.9H816.3L815.6 566.3C815.6 576.567 811.633 584.733 803.7 590.8C795.767 596.867 785.967 599.9 774.3 599.9C746.767 599.9 733 588.7 733 566.3V81.2C733 64.4 737.2 53.2 745.6 47.6C754.467 42 764.967 39.2 777.1 39.2H997.6C1009.73 39.2 1022.33 41.7666 1035.4 46.9C1048.47 52.0333 1061.07 58.5666 1073.2 66.5H1072.5C1084.63 75.3666 1093.97 87.0333 1100.5 101.5C1107.03 115.5 1110.3 131.833 1110.3 150.5V483C1110.3 520.8 1097.7 549.033 1072.5 567.7C1060.37 576.567 1047.77 583.567 1034.7 588.7C1022.1 593.367 1009.73 595.7 997.6 595.7H880C872.067 595.7 865.767 592.433 861.1 585.9C856.9 579.367 854.8 570.733 854.8 560C854.8 536.667 864.833 525 884.9 525H980.1Z" fill="white"/>
<path d="M1481.6 275.1C1493.73 275.1 1506.33 277.667 1519.4 282.8C1532.47 287.933 1545.07 294.7 1557.2 303.1H1556.5C1568.63 311.5 1577.97 322.933 1584.5 337.4C1591.03 351.867 1594.3 368.433 1594.3 387.1V483C1594.3 520.8 1581.7 549.033 1556.5 567.7C1544.37 576.567 1531.77 583.567 1518.7 588.7C1506.1 593.367 1493.73 595.7 1481.6 595.7H1329C1316.87 595.7 1304.27 593.367 1291.2 588.7C1278.6 583.567 1266.23 576.567 1254.1 567.7C1228.9 549.033 1216.3 520.8 1216.3 483V436.8C1216.3 414.867 1230.07 403.9 1257.6 403.9C1285.6 403.9 1299.6 414.867 1299.6 436.8V477.4C1299.6 489.533 1303.1 500.5 1310.1 510.3C1317.1 520.1 1329.23 525 1346.5 525H1464.1C1481.37 525 1493.5 520.1 1500.5 510.3C1507.5 500.5 1511 489.533 1511 477.4V392.7C1511 381.033 1507.5 370.3 1500.5 360.5C1493.5 350.233 1481.37 345.1 1464.1 345.1H1329C1304.73 345.1 1279.77 336.233 1254.1 318.5C1228.9 298.9 1216.3 270.667 1216.3 233.8V150.5C1216.3 131.833 1219.57 115.5 1226.1 101.5C1232.63 87.0333 1241.97 75.3666 1254.1 66.5H1253.4C1265.53 58.5666 1278.13 52.0333 1291.2 46.9C1304.27 41.7666 1316.87 39.2 1329 39.2H1481.6C1493.73 39.2 1506.33 41.7666 1519.4 46.9C1532.47 52.0333 1545.07 58.5666 1557.2 66.5H1556.5C1568.63 75.3666 1577.97 87.0333 1584.5 101.5C1591.03 115.5 1594.3 131.833 1594.3 150.5V191.8C1594.3 213.733 1580.3 224.7 1552.3 224.7C1524.77 224.7 1511 213.733 1511 191.8V156.8C1511 145.133 1507.5 134.4 1500.5 124.6C1493.5 114.8 1481.37 109.9 1464.1 109.9H1346.5C1329.23 109.9 1317.1 114.8 1310.1 124.6C1303.1 134.4 1299.6 145.133 1299.6 156.8V228.2C1299.6 240.333 1303.1 251.3 1310.1 261.1C1317.1 270.433 1329.23 275.1 1346.5 275.1H1481.6Z" fill="white"/>
<path d="M1888.49 107.8L1735.19 578.2V577.5C1732.39 584.5 1728.42 590.333 1723.29 595C1718.62 599.2 1712.79 601.3 1705.79 601.3C1702.05 601.3 1698.32 600.833 1694.59 599.9C1691.32 599.433 1687.82 598.733 1684.09 597.8H1684.79C1658.19 589.4 1648.39 574.467 1655.39 553L1814.99 67.9C1817.32 60.4333 1821.29 54.1333 1826.89 49C1832.95 43.8667 1839.95 40.8333 1847.89 39.9C1855.82 38.5 1863.52 37.5666 1870.99 37.1C1878.45 36.1666 1884.29 35.7 1888.49 35.7C1892.69 35.7 1898.52 36.1666 1905.99 37.1C1913.45 37.5666 1921.15 38.2666 1929.09 39.2C1935.62 40.1333 1941.92 43.6333 1947.99 49.7C1954.52 55.7666 1959.42 61.8333 1962.69 67.9C1988.82 148.167 2015.19 229.133 2041.79 310.8C2068.85 392 2095.45 472.733 2121.59 553C2128.12 574.467 2118.32 589.4 2092.19 597.8C2088.45 598.733 2084.95 599.433 2081.69 599.9C2078.89 600.833 2075.62 601.3 2071.89 601.3C2065.35 601.3 2059.29 599.2 2053.69 595C2048.55 590.333 2044.82 584.5 2042.49 577.5V578.2L1888.49 107.8ZM1940.99 427C1940.99 441.933 1935.62 454.767 1924.89 465.5C1914.62 475.767 1902.02 480.9 1887.09 480.9C1872.15 480.9 1859.55 475.767 1849.29 465.5C1839.02 454.767 1833.89 441.933 1833.89 427C1833.89 412.067 1839.02 399.467 1849.29 389.2C1859.55 378.467 1872.15 373.1 1887.09 373.1C1902.02 373.1 1914.62 378.467 1924.89 389.2C1935.62 399.467 1940.99 412.067 1940.99 427Z" fill="white"/>
<path d="M2270.37 565.6C2270.37 588 2256.37 599.2 2228.37 599.2C2200.84 599.2 2187.07 588 2187.07 565.6V69.3C2187.07 46.9 2200.84 35.7 2228.37 35.7C2256.37 35.7 2270.37 46.9 2270.37 69.3V565.6Z" fill="white"/>
</svg>
