<svg width="116" height="116" viewBox="0 0 116 116" fill="none" xmlns="http://www.w3.org/2000/svg">
<path d="M81.2008 46.4031C81.2008 52.5561 78.7565 58.4572 74.4057 62.808C70.0548 67.1588 64.1538 69.6031 58.0008 69.6031C51.8478 69.6031 45.9467 67.1588 41.5959 62.808C37.2451 58.4572 34.8008 52.5561 34.8008 46.4031C34.8008 40.2501 37.2451 34.3491 41.5959 29.9982C45.9467 25.6474 51.8478 23.2031 58.0008 23.2031C64.1538 23.2031 70.0548 25.6474 74.4057 29.9982C78.7565 34.3491 81.2008 40.2501 81.2008 46.4031Z" fill="#B0B0B0"/>
<path fill-rule="evenodd" clip-rule="evenodd" d="M55.6336 115.954C24.6993 114.712 0 89.2388 0 58C0 25.9666 25.9666 0 58 0C90.0334 0 116 25.9666 116 58C116 90.0334 90.0334 116 58 116H57.2054C56.6795 116 56.1556 115.985 55.6336 115.954ZM20.7814 94.598C20.3477 93.3527 20.2001 92.0256 20.3495 90.7154C20.4989 89.4052 20.9415 88.1455 21.6444 87.0298C22.3473 85.914 23.2924 84.9709 24.4097 84.2704C25.5269 83.5699 26.7876 83.1301 28.0981 82.9835C50.7065 80.4808 65.4327 80.707 87.9309 83.0357C89.2432 83.1724 90.507 83.6067 91.626 84.3056C92.7451 85.0045 93.6899 85.9495 94.3885 87.0687C95.0871 88.188 95.5211 89.4519 95.6574 90.7642C95.7937 92.0765 95.6288 93.4026 95.1751 94.6415C104.818 84.8859 110.218 71.717 110.2 58C110.2 29.1711 86.8289 5.8 58 5.8C29.1711 5.8 5.8 29.1711 5.8 58C5.8 72.2564 11.5159 85.1788 20.7814 94.598Z" fill="#B0B0B0"/>
</svg>
